# xmcd
#
# Track frame offsets:
#	150
#	85506
#	117846
#	140652
#	162046
#	181622
#	221293
#	247097
#	266026
#	284720
#	306756
#
# Disc length: 4574 seconds
#
# Revision: 1
# Processed by: cddbd v1.5.2PL0 Copyright (c) Steve Scherf et al.
# Submitted via: EZCDAudioConverter 1.3.4.1
#
DISCID=9811dc0b
DTITLE=John Martyn - 1976   Live At Leeds
DYEAR=1976
DGENRE=
TTITLE0=Outside In
TTITLE1=Solid Air
TTITLE2=Make No Mistake
TTITLE3=Bless The Weather
TTITLE4=The Man In The Station
TTITLE5=I'd Rather Be The Devil
TTITLE6=Solid Air [Recorded At The Glastonbury Festival]
TTITLE7=Bless The Weather [Recorded At The Glastonbury Festival]
TTITLE8=Love Of Mine [Recorded At The Glastonbury Festival]
TTITLE9=Fisherman's Dream [Recorded At The London Palladium]
TTITLE10=John Wayne [Recorded At The London Palladium]
EXTD=
EXTT0=
EXTT1=
EXTT2=
EXTT3=
EXTT4=
EXTT5=
EXTT6=
EXTT7=
EXTT8=
EXTT9=
EXTT10=
PLAYORDER=
